<svg width="173" height="29" viewBox="0 0 173 29" fill="none" xmlns="http://www.w3.org/2000/svg">
<path d="M3.136 28.38C2.376 28.38 1.768 28.1773 1.312 27.772C0.856 27.3667 0.628 26.8093 0.628 26.1V10.444C0.628 7.50533 1.464 5.2 3.136 3.528C4.808 1.856 7.11333 1.02 10.052 1.02C11.4707 1.02 12.8007 1.37467 14.042 2.084C15.3087 2.768 16.398 3.756 17.31 5.048C18.1967 3.73067 19.2607 2.73 20.502 2.046C21.7687 1.362 23.1367 1.02 24.606 1.02C27.5447 1.02 29.85 1.856 31.522 3.528C33.194 5.2 34.03 7.50533 34.03 10.444V26.1C34.03 26.784 33.7893 27.3413 33.308 27.772C32.852 28.1773 32.244 28.38 31.484 28.38C30.724 28.38 30.116 28.1773 29.66 27.772C29.204 27.3667 28.976 26.8093 28.976 26.1V10.444C28.976 8.51867 28.6213 7.138 27.912 6.302C27.2027 5.44067 26.0373 5.01 24.416 5.01C22.9467 5.01 21.8067 5.47867 20.996 6.416C20.2107 7.35333 19.818 8.696 19.818 10.444V26.1C19.818 26.8093 19.59 27.3667 19.134 27.772C18.678 28.1773 18.07 28.38 17.31 28.38C16.55 28.38 15.942 28.1773 15.486 27.772C15.0553 27.3667 14.84 26.8093 14.84 26.1V10.444C14.84 8.74667 14.4347 7.41667 13.624 6.454C12.8133 5.49133 11.686 5.01 10.242 5.01C8.62067 5.01 7.45533 5.44067 6.746 6.302C6.03667 7.138 5.682 8.51867 5.682 10.444V26.1C5.682 26.784 5.44133 27.3413 4.96 27.772C4.504 28.1773 3.896 28.38 3.136 28.38ZM38.612 28.342C37.852 28.342 37.244 28.1393 36.788 27.734C36.332 27.3287 36.104 26.7713 36.104 26.062V12.762C36.104 9.08867 37.1553 6.21333 39.258 4.136C41.3607 2.05867 44.2867 1.02 48.036 1.02C50.4933 1.02 52.6213 1.48867 54.42 2.426C56.2187 3.36333 57.5867 4.71867 58.524 6.492C59.4867 8.26533 59.968 10.3553 59.968 12.762V26.062C59.968 26.7713 59.74 27.3287 59.284 27.734C58.828 28.1393 58.22 28.342 57.46 28.342C56.7 28.342 56.0793 28.1393 55.598 27.734C55.142 27.3033 54.914 26.746 54.914 26.062V19.868H41.158V26.062C41.158 26.746 40.9173 27.3033 40.436 27.734C39.98 28.1393 39.372 28.342 38.612 28.342ZM54.914 15.954V12.648C54.914 10.1147 54.3313 8.21467 53.166 6.948C52.026 5.656 50.316 5.01 48.036 5.01C43.4507 5.01 41.158 7.556 41.158 12.648V15.954H54.914ZM64.3698 28.38C63.6098 28.38 63.0018 28.1773 62.5458 27.772C62.0898 27.3667 61.8618 26.8093 61.8618 26.1V11.774C61.8618 8.40467 62.9132 5.77 65.0158 3.87C67.1185 1.97 70.0318 1.02 73.7558 1.02C77.4798 1.02 80.3932 1.97 82.4958 3.87C84.5985 5.77 85.6498 8.40467 85.6498 11.774V26.1C85.6498 26.8093 85.4218 27.3667 84.9658 27.772C84.5098 28.1773 83.9018 28.38 83.1418 28.38C82.3818 28.38 81.7612 28.1773 81.2798 27.772C80.8238 27.3413 80.5958 26.784 80.5958 26.1V11.66C80.5958 9.50667 80.0132 7.86 78.8478 6.72C77.6825 5.58 75.9852 5.01 73.7558 5.01C71.5265 5.01 69.8292 5.58 68.6638 6.72C67.4985 7.86 66.9158 9.50667 66.9158 11.66V26.1C66.9158 26.784 66.6752 27.3413 66.1938 27.772C65.7378 28.1773 65.1298 28.38 64.3698 28.38ZM100.893 28.38C98.0306 28.38 95.5479 27.8353 93.4452 26.746C91.3426 25.6567 89.7339 24.086 88.6192 22.034C87.5046 19.982 86.9472 17.55 86.9472 14.738C86.9472 11.926 87.5046 9.494 88.6192 7.442C89.7339 5.36467 91.3299 3.78133 93.4072 2.692C95.5099 1.57733 97.9799 1.02 100.817 1.02C103.173 1.02 105.352 1.42533 107.353 2.236C109.355 3.04667 110.837 4.12333 111.799 5.466C112.103 5.87133 112.255 6.28933 112.255 6.72C112.255 7.35333 111.913 7.92333 111.229 8.43C110.925 8.658 110.545 8.772 110.089 8.772C109.709 8.772 109.329 8.696 108.949 8.544C108.569 8.36667 108.253 8.126 107.999 7.822C107.138 6.834 106.137 6.12467 104.997 5.694C103.857 5.238 102.464 5.01 100.817 5.01C98.0559 5.01 95.9026 5.87133 94.3572 7.594C92.8119 9.29133 92.0392 11.6727 92.0392 14.738C92.0392 17.778 92.8119 20.1467 94.3572 21.844C95.9279 23.5413 98.1066 24.39 100.893 24.39C104.085 24.39 106.631 23.4527 108.531 21.578C109.317 20.8433 110.039 20.476 110.697 20.476C111.153 20.476 111.571 20.628 111.951 20.932C112.534 21.4387 112.825 21.996 112.825 22.604C112.825 23.06 112.661 23.5033 112.331 23.934C111.242 25.3273 109.684 26.4167 107.657 27.202C105.656 27.9873 103.401 28.38 100.893 28.38ZM118.366 28.38C117.606 28.38 116.998 28.1773 116.542 27.772C116.086 27.3667 115.858 26.8093 115.858 26.1V3.3C115.858 2.59067 116.086 2.03333 116.542 1.628C116.998 1.22267 117.606 1.02 118.366 1.02C119.101 1.02 119.709 1.22267 120.19 1.628C120.671 2.03333 120.912 2.59067 120.912 3.3V26.1C120.912 26.8093 120.671 27.3667 120.19 27.772C119.709 28.1773 119.101 28.38 118.366 28.38ZM135.354 28.38C134.594 28.38 133.986 28.1773 133.53 27.772C133.074 27.3667 132.846 26.8093 132.846 26.1V5.314H125.512C124.777 5.314 124.195 5.14933 123.764 4.82C123.359 4.46533 123.156 3.984 123.156 3.376C123.156 2.74267 123.359 2.26133 123.764 1.932C124.169 1.57733 124.752 1.4 125.512 1.4H145.234C145.994 1.4 146.577 1.57733 146.982 1.932C147.387 2.26133 147.59 2.74267 147.59 3.376C147.59 3.984 147.375 4.46533 146.944 4.82C146.539 5.14933 145.969 5.314 145.234 5.314H137.9V26.1C137.9 26.784 137.659 27.3413 137.178 27.772C136.722 28.1773 136.114 28.38 135.354 28.38ZM170.226 1.02C170.986 1.02 171.594 1.22267 172.05 1.628C172.506 2.03333 172.734 2.59067 172.734 3.3V7.29C172.734 10.6593 171.885 13.408 170.188 15.536C168.491 17.6387 166.122 18.918 163.082 19.374V26.1C163.082 26.784 162.841 27.3413 162.36 27.772C161.904 28.1773 161.296 28.38 160.536 28.38C159.776 28.38 159.168 28.1773 158.712 27.772C158.256 27.3667 158.028 26.8093 158.028 26.1V19.374C154.963 18.918 152.581 17.6387 150.884 15.536C149.187 13.4333 148.338 10.6847 148.338 7.29V3.3C148.338 2.59067 148.566 2.03333 149.022 1.628C149.478 1.22267 150.086 1.02 150.846 1.02C151.606 1.02 152.214 1.23533 152.67 1.666C153.151 2.07133 153.392 2.616 153.392 3.3V7.404C153.392 10.0387 154 12.0653 155.216 13.484C156.457 14.8773 158.231 15.574 160.536 15.574C162.841 15.574 164.602 14.8773 165.818 13.484C167.059 12.0653 167.68 10.0387 167.68 7.404V3.3C167.68 2.616 167.908 2.07133 168.364 1.666C168.845 1.23533 169.466 1.02 170.226 1.02Z" fill="#08080C"/>
</svg>
